<svg width="248" height="95" viewBox="0 0 248 95" fill="none" xmlns="http://www.w3.org/2000/svg">
<rect y="52" width="248" height="8" fill="white"/>
<rect x="85" width="39" height="47" fill="white"/>
<rect x="39" y="21" width="39" height="31" fill="white"/>
<rect x="131" y="8" width="39" height="44" fill="white"/>
<rect x="177" y="21" width="39" height="25" fill="white"/>
<path d="M37.7 86.648C38.268 86.648 38.684 86.488 38.948 86.168C39.212 85.848 39.344 85.468 39.344 85.028V84.188C39.344 83.668 39.176 83.3 38.84 83.084C38.504 82.86 38.124 82.748 37.7 82.748H36.764V86.648H37.7ZM39.176 78.536C39.176 78.056 39.044 77.724 38.78 77.54C38.516 77.348 38.136 77.252 37.64 77.252H36.764V80.72H37.736C38.2 80.72 38.556 80.54 38.804 80.18C39.052 79.812 39.176 79.364 39.176 78.836V78.536ZM38.516 89.108C37.892 89.108 37.084 89.092 36.092 89.06C35.1 89.028 34.388 89.008 33.956 89H32.804V74.936H34.88C35.384 74.936 35.96 74.92 36.608 74.888C37.256 74.848 37.724 74.828 38.012 74.828C38.948 74.828 39.736 74.904 40.376 75.056C41.024 75.208 41.532 75.436 41.9 75.74C42.268 76.044 42.528 76.396 42.68 76.796C42.84 77.196 42.92 77.672 42.92 78.224C42.92 79.072 42.724 79.8 42.332 80.408C41.94 81.016 41.372 81.396 40.628 81.548C42.516 81.716 43.46 82.824 43.46 84.872C43.46 85.488 43.368 86.048 43.184 86.552C43 87.048 42.716 87.492 42.332 87.884C41.956 88.268 41.444 88.568 40.796 88.784C40.148 89 39.388 89.108 38.516 89.108ZM61.7293 90H53.2213V75.936H61.5493L61.3093 78.768L57.1933 78.648V81.36H60.4333V84.168L57.1933 83.928V87.12L61.7293 87V90ZM71.459 92V77.936H75.431V88.784H79.007V92H71.459ZM88.7474 91V76.936H92.7194V87.784H96.2954V91H88.7474ZM112.936 90L112.396 87.756H108.988L108.532 90H105.004L108.664 76.908L108.376 75.936H113.332L117.34 90H112.936ZM110.536 80.064L109.48 85.308H111.808L110.536 80.064ZM142.286 92L138.314 77.936H142.742L143.786 82.784L144.866 87.872L145.886 82.784L146.966 77.936H150.122L146.642 92H142.286ZM158.816 91V76.936H162.908V91H158.816ZM177.374 92.252C176.758 92.252 176.182 92.196 175.646 92.084C175.118 91.98 174.674 91.84 174.314 91.664C173.954 91.488 173.658 91.32 173.426 91.16C173.202 91 173.014 90.84 172.862 90.68L173.162 87.764C173.49 88.204 173.93 88.588 174.482 88.916C175.034 89.236 175.63 89.396 176.27 89.396C176.91 89.396 177.37 89.328 177.65 89.192C177.938 89.056 178.082 88.808 178.082 88.448C178.082 88.064 177.918 87.736 177.59 87.464C177.27 87.192 176.714 86.864 175.922 86.48C175.634 86.336 175.39 86.208 175.19 86.096C174.99 85.976 174.722 85.784 174.386 85.52C174.058 85.248 173.79 84.968 173.582 84.68C173.374 84.384 173.19 84.008 173.03 83.552C172.87 83.088 172.79 82.592 172.79 82.064C172.79 79.208 174.402 77.78 177.626 77.78C178.138 77.78 178.618 77.836 179.066 77.948C179.522 78.052 179.878 78.168 180.134 78.296C180.39 78.424 180.622 78.576 180.83 78.752C181.046 78.92 181.182 79.04 181.238 79.112C181.294 79.176 181.334 79.228 181.358 79.268L180.758 81.584C180.446 81.216 180.054 80.944 179.582 80.768C179.118 80.584 178.674 80.492 178.25 80.492C177.226 80.492 176.714 80.812 176.714 81.452C176.714 81.62 176.746 81.772 176.81 81.908C176.874 82.044 176.978 82.168 177.122 82.28C177.266 82.392 177.398 82.488 177.518 82.568C177.646 82.648 177.818 82.748 178.034 82.868C178.258 82.98 178.426 83.072 178.538 83.144C179.706 83.64 180.562 84.228 181.106 84.908C181.658 85.588 181.934 86.416 181.934 87.392C181.934 88.976 181.542 90.184 180.758 91.016C179.982 91.84 178.854 92.252 177.374 92.252ZM194.077 90V79.116H191.269V75.936H200.941V79.116H198.133V90H194.077ZM217.545 89L217.005 86.756H213.597L213.141 89H209.613L213.273 75.908L212.985 74.936H217.941L221.949 89H217.545ZM215.145 79.064L214.089 84.308H216.417L215.145 79.064Z" fill="white"/>
</svg>
