<svg width="411" height="160" viewBox="0 0 411 160" fill="none" xmlns="http://www.w3.org/2000/svg">
<rect x="-6.10352e-05" y="88.1151" width="410.702" height="10.28" fill="#1862BD"/>
<path d="M141 0H205.586V77.8346H141V0Z" fill="#E889A5"/>
<rect x="64.5861" y="36.7771" width="64.5862" height="51.3377" fill="#23A0D8"/>
<rect x="216.943" y="15.2484" width="64.5862" height="72.8664" fill="#8DE0C4"/>
<rect x="293.122" y="36.7771" width="64.5862" height="41.4014" fill="#FAA200"/>
<path d="M62.4331 145.494C63.3737 145.494 64.0626 145.229 64.4998 144.699C64.937 144.169 65.1556 143.54 65.1556 142.811V141.42C65.1556 140.559 64.8774 139.95 64.321 139.592C63.7646 139.221 63.1353 139.036 62.4331 139.036H60.883V145.494H62.4331ZM64.8774 132.06C64.8774 131.265 64.6588 130.715 64.2216 130.411C63.7844 130.093 63.1551 129.934 62.3337 129.934H60.883V135.677H62.4927C63.2611 135.677 63.8507 135.379 64.2614 134.783C64.6721 134.173 64.8774 133.431 64.8774 132.557V132.06ZM63.7844 149.568C62.7511 149.568 61.413 149.542 59.7702 149.489C58.1273 149.436 56.9482 149.402 56.2328 149.389H54.325V126.098H57.763C58.5977 126.098 59.5516 126.072 60.6247 126.019C61.6978 125.953 62.4728 125.92 62.9498 125.92C64.4998 125.92 65.8048 126.045 66.8647 126.297C67.9378 126.549 68.7791 126.926 69.3885 127.43C69.9979 127.933 70.4285 128.516 70.6802 129.179C70.9452 129.841 71.0777 130.629 71.0777 131.544C71.0777 132.948 70.7531 134.153 70.1039 135.16C69.4548 136.167 68.5141 136.797 67.282 137.048C70.4087 137.326 71.972 139.161 71.972 142.553C71.972 143.573 71.8196 144.5 71.5149 145.335C71.2102 146.157 70.7399 146.892 70.1039 147.541C69.4813 148.177 68.6334 148.674 67.5602 149.031C66.4871 149.389 65.2285 149.568 63.7844 149.568ZM102.227 151.045H88.1372V127.754H101.929L101.531 132.444L94.7151 132.246V136.737H100.081V141.387L94.7151 140.99V146.276L102.227 146.077V151.045ZM118.34 154.357V131.067H124.918V149.031H130.84V154.357H118.34ZM146.97 152.701V129.411H153.548V147.375H159.47V152.701H146.97ZM187.028 151.045L186.134 147.329H180.49L179.735 151.045H173.892L179.953 129.364L179.476 127.754H187.684L194.321 151.045H187.028ZM183.053 134.591L181.305 143.275H185.16L183.053 134.591ZM235.633 154.357L229.055 131.067H236.388L238.117 139.095L239.906 147.521L241.595 139.095L243.384 131.067H248.61L242.847 154.357H235.633ZM263.008 152.701V129.411H269.784V152.701H263.008ZM293.741 154.775C292.721 154.775 291.767 154.682 290.879 154.496C290.005 154.324 289.27 154.092 288.673 153.801C288.077 153.509 287.587 153.231 287.203 152.966C286.832 152.701 286.521 152.436 286.269 152.171L286.766 147.342C287.309 148.071 288.037 148.707 288.952 149.25C289.866 149.78 290.853 150.045 291.913 150.045C292.973 150.045 293.734 149.932 294.198 149.707C294.675 149.482 294.913 149.071 294.913 148.475C294.913 147.839 294.642 147.296 294.099 146.845C293.569 146.395 292.648 145.852 291.336 145.216C290.859 144.977 290.455 144.765 290.124 144.58C289.793 144.381 289.349 144.063 288.793 143.626C288.249 143.176 287.806 142.712 287.461 142.235C287.117 141.745 286.812 141.122 286.547 140.367C286.282 139.599 286.15 138.777 286.15 137.903C286.15 133.173 288.819 130.808 294.158 130.808C295.006 130.808 295.801 130.901 296.543 131.086C297.298 131.259 297.888 131.451 298.312 131.663C298.736 131.875 299.12 132.126 299.464 132.418C299.822 132.696 300.047 132.895 300.14 133.014C300.233 133.12 300.299 133.206 300.339 133.272L299.345 137.108C298.828 136.498 298.179 136.048 297.397 135.757C296.629 135.452 295.894 135.299 295.192 135.299C293.496 135.299 292.648 135.829 292.648 136.889C292.648 137.167 292.701 137.419 292.807 137.644C292.913 137.87 293.085 138.075 293.324 138.26C293.562 138.446 293.781 138.605 293.979 138.737C294.191 138.87 294.476 139.036 294.834 139.234C295.205 139.42 295.483 139.572 295.669 139.691C297.603 140.513 299.02 141.486 299.921 142.613C300.835 143.739 301.293 145.11 301.293 146.726C301.293 149.349 300.643 151.35 299.345 152.728C298.06 154.092 296.192 154.775 293.741 154.775ZM321.402 151.045V133.021H316.752V127.754H332.769V133.021H328.119V151.045H321.402ZM360.266 149.389L359.372 145.673H353.728L352.973 149.389H347.13L353.192 127.708L352.715 126.098H360.922L367.56 149.389H360.266ZM356.292 132.935L354.543 141.619H358.398L356.292 132.935Z" fill="#1862BD"/>
</svg>
