<svg width="191" height="26" viewBox="0 0 191 26" fill="none" xmlns="http://www.w3.org/2000/svg">
<g clip-path="url(#clip0_2_224)">
<path d="M5.69995 15.348C6.26795 15.348 6.68396 15.188 6.94796 14.868C7.21196 14.548 7.34396 14.168 7.34396 13.728V12.888C7.34396 12.368 7.17596 12 6.83996 11.784C6.50396 11.56 6.12395 11.448 5.69995 11.448H4.76396V15.348H5.69995ZM7.17596 7.23595C7.17596 6.75595 7.04396 6.42395 6.77996 6.23995C6.51596 6.04795 6.13595 5.95195 5.63996 5.95195H4.76396V9.41995H5.73596C6.19995 9.41995 6.55595 9.23995 6.80396 8.87995C7.05196 8.51195 7.17596 8.06395 7.17596 7.53595V7.23595ZM6.51595 17.808C5.89195 17.808 5.08396 17.792 4.09196 17.76C3.09996 17.728 2.38796 17.708 1.95596 17.7H0.803955V3.63595H2.87996C3.38396 3.63595 3.95995 3.61995 4.60795 3.58795C5.25595 3.54795 5.72396 3.52795 6.01196 3.52795C6.94796 3.52795 7.73596 3.60395 8.37596 3.75595C9.02396 3.90795 9.53195 4.13595 9.89995 4.43995C10.268 4.74395 10.528 5.09595 10.68 5.49595C10.84 5.89595 10.92 6.37195 10.92 6.92395C10.92 7.77195 10.724 8.49995 10.332 9.10795C9.93995 9.71595 9.37196 10.096 8.62796 10.248C10.516 10.416 11.46 11.524 11.46 13.572C11.46 14.188 11.368 14.748 11.184 15.252C11 15.748 10.716 16.192 10.332 16.584C9.95595 16.968 9.44395 17.268 8.79595 17.484C8.14795 17.7 7.38795 17.808 6.51595 17.808ZM29.7293 18.7H21.2213V4.63595H29.5493L29.3093 7.46795L25.1933 7.34795V10.06H28.4333V12.868L25.1933 12.628V15.82L29.7293 15.7V18.7ZM39.459 20.7V6.63595H43.431V17.484H47.007V20.7H39.459ZM56.7474 19.7V5.63595H60.7194V16.484H64.2954V19.7H56.7474ZM80.9359 18.7L80.3959 16.456H76.9879L76.5319 18.7H73.0039L76.6639 5.60795L76.3759 4.63595H81.3319L85.3399 18.7H80.9359ZM78.5359 8.76395L77.4799 14.008H79.8079L78.5359 8.76395ZM110.286 20.7L106.314 6.63595H110.742L111.786 11.484L112.866 16.572L113.886 11.484L114.966 6.63595H118.122L114.642 20.7H110.286ZM126.816 19.7V5.63595H130.908V19.7H126.816ZM145.374 20.952C144.758 20.952 144.182 20.896 143.646 20.784C143.118 20.68 142.674 20.54 142.314 20.364C141.954 20.188 141.658 20.02 141.426 19.86C141.202 19.7 141.014 19.54 140.862 19.38L141.162 16.464C141.49 16.904 141.93 17.288 142.482 17.616C143.034 17.936 143.63 18.096 144.27 18.096C144.91 18.096 145.37 18.028 145.65 17.892C145.938 17.756 146.082 17.508 146.082 17.148C146.082 16.764 145.918 16.436 145.59 16.164C145.27 15.892 144.714 15.564 143.922 15.18C143.634 15.036 143.39 14.908 143.19 14.796C142.99 14.676 142.722 14.484 142.386 14.22C142.058 13.948 141.79 13.668 141.582 13.38C141.374 13.084 141.19 12.708 141.03 12.252C140.87 11.788 140.79 11.292 140.79 10.764C140.79 7.90795 142.402 6.47996 145.626 6.47996C146.138 6.47996 146.618 6.53595 147.066 6.64795C147.522 6.75195 147.878 6.86795 148.134 6.99595C148.39 7.12395 148.622 7.27595 148.83 7.45195C149.046 7.61995 149.182 7.73995 149.238 7.81195C149.294 7.87595 149.334 7.92795 149.358 7.96795L148.758 10.284C148.446 9.91595 148.054 9.64395 147.582 9.46795C147.118 9.28395 146.674 9.19195 146.25 9.19195C145.226 9.19195 144.714 9.51195 144.714 10.152C144.714 10.32 144.746 10.472 144.81 10.608C144.874 10.744 144.978 10.868 145.122 10.98C145.266 11.092 145.398 11.188 145.518 11.268C145.646 11.348 145.818 11.448 146.034 11.568C146.258 11.68 146.426 11.772 146.538 11.844C147.706 12.34 148.562 12.928 149.106 13.608C149.658 14.288 149.934 15.116 149.934 16.092C149.934 17.676 149.542 18.884 148.758 19.716C147.982 20.54 146.854 20.952 145.374 20.952ZM162.077 18.7V7.81595H159.269V4.63595H168.941V7.81595H166.133V18.7H162.077ZM185.545 17.7L185.005 15.456H181.597L181.141 17.7H177.613L181.273 4.60795L180.985 3.63595H185.941L189.949 17.7H185.545ZM183.145 7.76395L182.089 13.008H184.417L183.145 7.76395Z" fill="#1862BD"/>
</g>
<defs>
<clipPath id="clip0_2_224">
<rect width="190" height="25" fill="white" transform="translate(0.5 0.0999756)"/>
</clipPath>
</defs>
</svg>
