<svg width="248" height="95" viewBox="0 0 248 95" fill="none" xmlns="http://www.w3.org/2000/svg">
<rect y="52.875" width="248" height="8" fill="black"/>
<rect x="85" y="0.875" width="39" height="47" fill="black"/>
<rect x="39" y="21.875" width="39" height="31" fill="black"/>
<rect x="131" y="8.875" width="39" height="44" fill="black"/>
<rect x="177" y="21.875" width="39" height="25" fill="black"/>
<path d="M37.7 87.523C38.268 87.523 38.684 87.363 38.948 87.043C39.212 86.723 39.344 86.343 39.344 85.903V85.063C39.344 84.543 39.176 84.175 38.84 83.959C38.504 83.735 38.124 83.623 37.7 83.623H36.764V87.523H37.7ZM39.176 79.411C39.176 78.931 39.044 78.599 38.78 78.415C38.516 78.223 38.136 78.127 37.64 78.127H36.764V81.595H37.736C38.2 81.595 38.556 81.415 38.804 81.055C39.052 80.687 39.176 80.239 39.176 79.711V79.411ZM38.516 89.983C37.892 89.983 37.084 89.967 36.092 89.935C35.1 89.903 34.388 89.883 33.956 89.875H32.804V75.811H34.88C35.384 75.811 35.96 75.795 36.608 75.763C37.256 75.723 37.724 75.703 38.012 75.703C38.948 75.703 39.736 75.779 40.376 75.931C41.024 76.083 41.532 76.311 41.9 76.615C42.268 76.919 42.528 77.271 42.68 77.671C42.84 78.071 42.92 78.547 42.92 79.099C42.92 79.947 42.724 80.675 42.332 81.283C41.94 81.891 41.372 82.271 40.628 82.423C42.516 82.591 43.46 83.699 43.46 85.747C43.46 86.363 43.368 86.923 43.184 87.427C43 87.923 42.716 88.367 42.332 88.759C41.956 89.143 41.444 89.443 40.796 89.659C40.148 89.875 39.388 89.983 38.516 89.983ZM61.7293 90.875H53.2213V76.811H61.5493L61.3093 79.643L57.1933 79.523V82.235H60.4333V85.043L57.1933 84.803V87.995L61.7293 87.875V90.875ZM71.459 92.875V78.811H75.431V89.659H79.007V92.875H71.459ZM88.7474 91.875V77.811H92.7194V88.659H96.2954V91.875H88.7474ZM112.936 90.875L112.396 88.631H108.988L108.532 90.875H105.004L108.664 77.783L108.376 76.811H113.332L117.34 90.875H112.936ZM110.536 80.939L109.48 86.183H111.808L110.536 80.939ZM142.286 92.875L138.314 78.811H142.742L143.786 83.659L144.866 88.747L145.886 83.659L146.966 78.811H150.122L146.642 92.875H142.286ZM158.816 91.875V77.811H162.908V91.875H158.816ZM177.374 93.127C176.758 93.127 176.182 93.071 175.646 92.959C175.118 92.855 174.674 92.715 174.314 92.539C173.954 92.363 173.658 92.195 173.426 92.035C173.202 91.875 173.014 91.715 172.862 91.555L173.162 88.639C173.49 89.079 173.93 89.463 174.482 89.791C175.034 90.111 175.63 90.271 176.27 90.271C176.91 90.271 177.37 90.203 177.65 90.067C177.938 89.931 178.082 89.683 178.082 89.323C178.082 88.939 177.918 88.611 177.59 88.339C177.27 88.067 176.714 87.739 175.922 87.355C175.634 87.211 175.39 87.083 175.19 86.971C174.99 86.851 174.722 86.659 174.386 86.395C174.058 86.123 173.79 85.843 173.582 85.555C173.374 85.259 173.19 84.883 173.03 84.427C172.87 83.963 172.79 83.467 172.79 82.939C172.79 80.083 174.402 78.655 177.626 78.655C178.138 78.655 178.618 78.711 179.066 78.823C179.522 78.927 179.878 79.043 180.134 79.171C180.39 79.299 180.622 79.451 180.83 79.627C181.046 79.795 181.182 79.915 181.238 79.987C181.294 80.051 181.334 80.103 181.358 80.143L180.758 82.459C180.446 82.091 180.054 81.819 179.582 81.643C179.118 81.459 178.674 81.367 178.25 81.367C177.226 81.367 176.714 81.687 176.714 82.327C176.714 82.495 176.746 82.647 176.81 82.783C176.874 82.919 176.978 83.043 177.122 83.155C177.266 83.267 177.398 83.363 177.518 83.443C177.646 83.523 177.818 83.623 178.034 83.743C178.258 83.855 178.426 83.947 178.538 84.019C179.706 84.515 180.562 85.103 181.106 85.783C181.658 86.463 181.934 87.291 181.934 88.267C181.934 89.851 181.542 91.059 180.758 91.891C179.982 92.715 178.854 93.127 177.374 93.127ZM194.077 90.875V79.991H191.269V76.811H200.941V79.991H198.133V90.875H194.077ZM217.545 89.875L217.005 87.631H213.597L213.141 89.875H209.613L213.273 76.783L212.985 75.811H217.941L221.949 89.875H217.545ZM215.145 79.939L214.089 85.183H216.417L215.145 79.939Z" fill="black"/>
</svg>
