<svg width="24" height="24" viewBox="0 0 24 24" fill="none" xmlns="http://www.w3.org/2000/svg">
<g clip-path="url(#clip0_97_137)">
<path fill-rule="evenodd" clip-rule="evenodd" d="M0 11.9978C0 5.37491 5.37101 0 12 0C18.6295 0 24 5.37975 24 12.0022C24 18.6251 18.629 24 12 24H11.0266V23.9567C4.85696 23.4609 0 18.2934 0 11.9978ZM12.2985 22.0493C17.7136 21.8914 22.0533 17.4509 22.0533 12.0022C22.0533 6.45319 17.5528 1.9464 12 1.9464C6.4467 1.9464 1.94675 6.44936 1.94675 11.9978C1.94675 17.5461 6.45079 22.0493 12 22.0493H12.2985Z" fill="white"/>
<path fill-rule="evenodd" clip-rule="evenodd" d="M7.14166 3.2064C7.0082 3.1644 6.86986 3.12086 6.72571 3.07197L7.35121 1.22878C7.40866 1.24827 7.51212 1.28126 7.63291 1.31978C7.84992 1.38897 8.12285 1.476 8.28541 1.53462L8.29415 1.53777L8.30281 1.54108C8.34728 1.55808 8.39495 1.57611 8.44493 1.59502C8.69675 1.69025 9.00743 1.80775 9.2669 1.9291L9.27845 1.93449L9.32986 1.96019C9.45196 2.01713 9.63533 2.10452 9.78807 2.17731C9.8738 2.21818 9.94988 2.25444 10.0001 2.27813L10.0233 2.28909L10.0459 2.30127C10.0511 2.3041 10.0573 2.3074 10.0643 2.31113C10.1169 2.33931 10.215 2.39182 10.3092 2.44936L10.335 2.46514L10.3424 2.47026C10.353 2.47644 10.3675 2.4847 10.3855 2.4947C10.4012 2.50346 10.4163 2.51178 10.4315 2.52009C10.4344 2.52172 10.4374 2.52336 10.4403 2.52499C10.4487 2.52958 10.4582 2.53479 10.4666 2.53953L10.4672 2.53987C10.4715 2.54227 10.4826 2.54841 10.4953 2.55583C10.5068 2.56244 10.5245 2.57253 10.5466 2.58517C10.6143 2.62379 10.7237 2.68622 10.8252 2.74569C10.9298 2.80695 11.0895 2.90132 11.2077 2.98415C11.3343 3.06189 11.4734 3.15828 11.5661 3.22247C11.5828 3.23403 11.598 3.24455 11.6113 3.25373C11.6825 3.29711 11.7523 3.3463 11.8008 3.38108C11.8703 3.43084 11.9459 3.48722 12.0148 3.53905C12.0467 3.56299 12.0758 3.58496 12.1032 3.60572C12.1398 3.63333 12.1736 3.65882 12.2072 3.68398C12.235 3.70476 12.2581 3.72189 12.2768 3.73546C12.286 3.74216 12.2932 3.74731 12.2986 3.75113C12.3032 3.75439 12.3054 3.75585 12.3055 3.75593L12.3309 3.77284L12.3553 3.79144C13.4296 4.6098 14.3863 5.57126 15.2029 6.64286L15.2037 6.64384L15.2044 6.64485C16.1071 7.83581 16.8198 9.15788 17.3141 10.5648C18.7868 14.6782 18.3537 19.4303 16.0391 23.1816L14.3823 22.1597C16.377 18.9269 16.761 14.7929 15.4804 11.2183L15.4793 11.2154L15.4783 11.2125C15.0517 9.99724 14.4356 8.85334 13.6536 7.82134C12.946 6.8931 12.1197 6.0618 11.1951 5.35466C11.144 5.31919 11.0873 5.27708 11.0409 5.24239C11.0058 5.21614 10.9646 5.18501 10.9239 5.1543C10.8965 5.13368 10.8695 5.11328 10.8447 5.09468C10.7779 5.04443 10.7172 4.99924 10.6669 4.96324C10.6221 4.93114 10.6035 4.91929 10.6036 4.9191C10.6034 4.91903 10.6036 4.9191 10.6036 4.9191L10.5749 4.9029L10.5411 4.87999C10.4913 4.84624 10.4471 4.8156 10.4065 4.78751C10.3174 4.72586 10.246 4.67648 10.1736 4.6335L10.1262 4.60534L10.0823 4.57204C10.085 4.5741 10.0848 4.57399 10.0809 4.5714C10.0737 4.5666 10.0537 4.55329 10.0162 4.53C9.96676 4.49936 9.90616 4.46318 9.8414 4.42523C9.74952 4.37145 9.66586 4.32371 9.59967 4.28595C9.56881 4.26833 9.54173 4.25288 9.51942 4.24001L9.5174 4.23885C9.51398 4.23698 9.50896 4.23416 9.50138 4.23C9.49906 4.22873 9.49651 4.22734 9.49381 4.22584C9.47877 4.21759 9.45871 4.20653 9.43827 4.19516C9.41435 4.18185 9.38532 4.1655 9.35708 4.14896C9.34163 4.13993 9.31283 4.12298 9.28058 4.10205C9.24095 4.07843 9.19842 4.05559 9.1478 4.0284C9.14705 4.02799 9.1463 4.02758 9.14555 4.02716C9.08498 3.99851 9.00961 3.96259 8.92962 3.92441C8.7791 3.85264 8.61207 3.77303 8.49616 3.71912L8.48367 3.71331L8.43128 3.68712C8.2475 3.60192 8.02745 3.5185 7.781 3.42506C7.72741 3.40475 7.67258 3.38396 7.6166 3.36258C7.46468 3.30805 7.30692 3.25841 7.14166 3.2064ZM9.51942 4.24001C9.52047 4.24061 9.52115 4.24095 9.52115 4.24095L9.51942 4.24001ZM9.51942 4.24001C9.52047 4.24061 9.52115 4.24095 9.52115 4.24095L9.51942 4.24001Z" fill="white"/>
<path fill-rule="evenodd" clip-rule="evenodd" d="M11.2407 7.83866C14.1786 7.30822 16.8896 5.6604 18.7438 3.31485L20.2711 4.52179C18.1284 7.2324 15.0003 9.13777 11.5864 9.75412C9.88657 10.0606 8.13986 10.071 6.43503 9.75844C4.73486 9.4554 3.09428 8.84505 1.61047 7.95397L2.61284 6.28545C3.89144 7.05326 5.30853 7.58085 6.77898 7.84264L6.78153 7.84309L6.78408 7.84358C8.25 8.1126 9.76121 8.1054 11.2407 7.83866Z" fill="white"/>
<path fill-rule="evenodd" clip-rule="evenodd" d="M6.03979 21.8667C7.7018 13.386 16.3446 8.70232 23.413 10.6288L22.901 12.5067C16.9008 10.8714 9.39027 14.8927 7.95023 22.2409L6.03979 21.8667Z" fill="white"/>
</g>
<defs>
<clipPath id="clip0_97_137">
<rect width="24" height="24" fill="white"/>
</clipPath>
</defs>
</svg>
