<svg width="24" height="24" viewBox="0 0 24 24" fill="none" xmlns="http://www.w3.org/2000/svg">
<g clip-path="url(#clip0_97_130)">
<path d="M11.9755 0.2449C5.33878 0.2449 0 5.63265 0 12.2939C0 17.6327 3.42857 22.1388 8.17959 23.7306C8.76735 23.8531 8.98776 23.4612 8.98776 23.1429C8.98776 22.8735 8.96327 21.8939 8.96327 20.9143C5.63265 21.6245 4.94694 19.4694 4.94694 19.4694C4.40816 18.0735 3.62449 17.7061 3.62449 17.7061C2.54694 16.9714 3.69796 16.9714 3.69796 16.9714C4.89796 17.0449 5.53469 18.2204 5.53469 18.2204C6.61225 20.0571 8.32653 19.5429 9.01224 19.2245C9.1102 18.4408 9.42857 17.902 9.77143 17.6082C7.12653 17.3388 4.33469 16.2857 4.33469 11.6571C4.33469 10.3347 4.8 9.25714 5.55918 8.42449C5.43673 8.13061 5.02041 6.88163 5.68163 5.24082C5.68163 5.24082 6.68571 4.92245 8.96327 6.4898C9.91837 6.22041 10.9469 6.09796 11.951 6.09796C12.9551 6.09796 13.9837 6.2449 14.9388 6.4898C17.2163 4.92245 18.2204 5.24082 18.2204 5.24082C18.8816 6.90612 18.4653 8.13061 18.3429 8.42449C19.1265 9.25714 19.5673 10.3347 19.5673 11.6571C19.5673 16.2857 16.7755 17.3143 14.1061 17.6082C14.5469 17.9755 14.9143 18.7102 14.9143 19.8367C14.9143 21.4531 14.8898 22.751 14.8898 23.1429C14.8898 23.4612 15.1102 23.8531 15.698 23.7306C20.4735 22.1388 23.902 17.6327 23.902 12.2939C23.9265 5.63265 18.5633 0.2449 11.9755 0.2449Z" fill="white"/>
</g>
<defs>
<clipPath id="clip0_97_130">
<rect width="24" height="24" fill="white"/>
</clipPath>
</defs>
</svg>
